Coordinates
version=1
nRows=7
nColumns=46
inDegrees=yes

Units are S.I. units (second, meters, Newtons, ...)
Angles are in degrees.

endheader
time	pelvis_tilt	pelvis_list	pelvis_rotation	pelvis_tx	pelvis_ty	pelvis_tz	bb_angle	bb_tx	bb_ty	bb_tz	hip_flexion_r	hip_adduction_r	hip_rotation_r	knee_angle_r	knee_angle_r_beta	ankle_angle_r	subtalar_angle_r	mtp_angle_r	crank_angle_r	hip_flexion_l	hip_adduction_l	hip_rotation_l	knee_angle_l	knee_angle_l_beta	ankle_angle_l	subtalar_angle_l	mtp_angle_l	crank_angle_l	lumbar_extension	lumbar_bending	lumbar_rotation	arm_flex_r	arm_add_r	arm_rot_r	elbow_flex_r	pro_sup_r	wrist_flex_r	wrist_dev_r	arm_flex_l	arm_add_l	arm_rot_l	elbow_flex_l	pro_sup_l	wrist_flex_l	wrist_dev_l
      0.00500000	    -13.54781350	     -0.64568723	     -2.91155282	      0.05752775	      1.16055755	     -0.22637041	      0.00000000	      0.50000000	      0.00000000	      0.25000000	     82.85235588	     -0.48468672	      2.55553226	     86.87526908	      1.51625948	     -2.28343210	     -8.06637221	      0.00000000	      0.00000000	     46.31718920	     -7.86975886	     -2.37370791	     65.16697108	      1.13737821	      0.95567368	     -7.80314954	      0.00000000	      0.00000000	    -53.80553105	     -0.94178364	      1.14213262	     89.81335669	     -1.42901429	     43.10482172	     25.66101543	     22.88131374	      0.00000000	      0.00000000	     89.77896781	     -0.94173972	     34.88418682	     23.78270390	     22.93025397	      0.00000000	      0.00000000
      0.01000000	    -13.55765384	     -0.64891673	     -2.93477155	      0.05751381	      1.16053192	     -0.22633789	      0.00000000	      0.50000000	      0.00000000	      0.25000000	     82.86298525	     -0.45545479	      2.55963296	     86.87145779	      1.51619296	     -2.28767297	     -8.06632208	      0.00000000	      0.00000000	     46.33103437	     -7.89345587	     -2.39656806	     65.17992731	      1.13760434	      0.95804544	     -7.80703356	      0.00000000	      0.00000000	    -53.78953502	     -0.95475092	      1.12920154	     89.81399689	     -1.37856014	     43.14973365	     25.64489146	     22.73615990	      0.00000000	      0.00000000	     89.77904668	     -1.03170878	     35.18047283	     23.75187194	     22.87539759	      0.00000000	      0.00000000
      0.01500000	    -13.52882338	     -0.63036111	     -2.92803651	      0.05752678	      1.16057496	     -0.22632117	      0.00000000	      0.50000000	      0.00000000	      0.25000000	     82.83408645	     -0.46860457	      2.57830170	     86.87844892	      1.51631498	     -2.25589977	     -8.03958905	      0.00000000	      0.00000000	     46.29549089	     -7.87155604	     -2.40137766	     65.17603080	      1.13753633	      0.97701901	     -7.79341616	      0.00000000	      0.00000000	    -53.82319205	     -0.94892244	      1.12414524	     89.81186005	     -1.34680813	     42.89013514	     25.92591314	     21.48611458	      0.00000000	      0.00000000	     89.78125115	     -1.09002020	     35.64395316	     23.92784173	     21.82462017	      0.00000000	      0.00000000
      0.02000000	    -13.49455665	     -0.65085393	     -2.95267019	      0.05751503	      1.16055239	     -0.22627657	      0.00000000	      0.50000000	      0.00000000	      0.25000000	     82.79911170	     -0.43590901	      2.59378337	     86.90181777	      1.51672285	     -2.13527533	     -7.97717406	      0.00000000	      0.00000000	     46.27613082	     -7.90351513	     -2.40840891	     65.20452641	      1.13803367	      0.93338008	     -7.83579013	      0.00000000	      0.00000000	    -53.81058714	     -0.96696106	      1.29103592	     89.81253525	     -1.61018864	     43.28831327	     25.79606918	     22.26093329	      0.00000000	      0.00000000	     89.77834541	     -1.05451250	     33.15066782	     24.22646432	     22.43221694	      0.00000000	      0.00000000
      0.02500000	    -13.78280715	     -1.05339161	     -3.09212021	      0.05709533	      1.15913857	     -0.22424957	      0.00000000	      0.50000000	      0.00000000	      0.25000000	     83.15289402	     -0.02179806	      2.28620250	     86.88122564	      1.51636345	     -2.24813483	     -7.81111134	      0.00000000	      0.00000000	     46.72276298	     -7.99545077	     -1.83410722	     65.08316361	      1.13591549	      0.36886831	     -6.36397030	      0.00000000	      0.00000000	    -53.49628651	     -0.48775181	      1.40604780	     89.81522303	     -0.85213382	     43.19566035	     25.90477106	     22.15825695	      0.00000000	      0.00000000	     89.77920897	     -1.41081162	     32.73324391	     23.82749327	     22.24868407	      0.00000000	      0.00000000
      0.03000000	    -13.66499678	     -0.86062736	     -2.93150888	      0.05745100	      1.16020911	     -0.22625927	      0.00000000	      0.50000000	      0.00000000	      0.25000000	     82.94638279	     -0.41029841	      2.34577392	     86.87296430	      1.51621926	     -2.16763744	     -8.00939751	      0.00000000	      0.00000000	     46.56538968	     -8.13334826	     -2.26773854	     65.38862514	      1.14124680	      1.25436519	     -7.23932958	      0.00000000	      0.00000000	    -53.59229047	     -0.77763462	      1.23055279	     89.80699727	     -1.25000071	     43.09925048	     25.73179364	     22.09618461	      0.00000000	      0.00000000	     89.77672085	     -1.24466197	     32.80774941	     24.02522868	     22.27840123	      0.00000000	      0.00000000
      0.03500000	    -13.47529521	     -0.63152949	     -2.94644048	      0.05752637	      1.16072556	     -0.22634702	      0.00000000	      0.50000000	      0.00000000	      0.25000000	     82.77265592	     -0.46625968	      2.59464677	     86.90461716	      1.51677170	     -2.13127798	     -8.04010739	      0.00000000	      0.00000000	     46.23322907	     -7.87090503	     -2.42072038	     65.17427246	      1.13750564	      0.95255120	     -7.90679392	      0.00000000	      0.00000000	    -53.85437850	     -0.97721476	      1.29299612	     89.81341839	     -1.54839827	     42.95864735	     25.64101046	     23.13893153	      0.00000000	      0.00000000	     89.77724455	     -0.94230732	     32.44477096	     24.14566814	     23.34546907	      0.00000000	      0.00000000
